<mxfile>
    <diagram id="gCIJAPC8bgeQ6VSperVp" name="Page-1">
        <mxGraphModel dx="1157" dy="428" grid="1" gridSize="10" guides="1" tooltips="1" connect="1" arrows="1" fold="1" page="1" pageScale="1" pageWidth="850" pageHeight="1100" math="0" shadow="0">
            <root>
                <mxCell id="0"/>
                <mxCell id="1" parent="0"/>
                <mxCell id="4" value="" style="edgeStyle=orthogonalEdgeStyle;rounded=0;orthogonalLoop=1;jettySize=auto;html=1;exitX=0.5;exitY=1;exitDx=0;exitDy=0;" edge="1" parent="1" source="2" target="3">
                    <mxGeometry relative="1" as="geometry"/>
                </mxCell>
                <mxCell id="6" value="" style="edgeStyle=orthogonalEdgeStyle;rounded=0;orthogonalLoop=1;jettySize=auto;html=1;exitX=0.5;exitY=1;exitDx=0;exitDy=0;" edge="1" parent="1" source="2" target="5">
                    <mxGeometry relative="1" as="geometry"/>
                </mxCell>
                <mxCell id="2" value="Tipos de datos en Java" style="rounded=1;arcSize=10;whiteSpace=wrap;html=1;align=center;" vertex="1" parent="1">
                    <mxGeometry x="310" y="30" width="160" height="50" as="geometry"/>
                </mxCell>
                <mxCell id="8" value="" style="edgeStyle=orthogonalEdgeStyle;rounded=0;orthogonalLoop=1;jettySize=auto;html=1;" edge="1" parent="1" source="3" target="7">
                    <mxGeometry relative="1" as="geometry"/>
                </mxCell>
                <mxCell id="10" value="" style="edgeStyle=orthogonalEdgeStyle;rounded=0;orthogonalLoop=1;jettySize=auto;html=1;" edge="1" parent="1" source="3" target="9">
                    <mxGeometry relative="1" as="geometry"/>
                </mxCell>
                <mxCell id="3" value="Tipos Primitivos" style="rounded=1;whiteSpace=wrap;html=1;arcSize=10;" vertex="1" parent="1">
                    <mxGeometry x="130" y="160" width="140" height="50" as="geometry"/>
                </mxCell>
                <mxCell id="12" value="" style="edgeStyle=orthogonalEdgeStyle;rounded=0;orthogonalLoop=1;jettySize=auto;html=1;exitX=0.5;exitY=1;exitDx=0;exitDy=0;" edge="1" parent="1" source="5" target="11">
                    <mxGeometry relative="1" as="geometry"/>
                </mxCell>
                <mxCell id="14" value="" style="edgeStyle=orthogonalEdgeStyle;rounded=0;orthogonalLoop=1;jettySize=auto;html=1;" edge="1" parent="1" source="5" target="13">
                    <mxGeometry relative="1" as="geometry"/>
                </mxCell>
                <mxCell id="16" value="" style="edgeStyle=orthogonalEdgeStyle;rounded=0;orthogonalLoop=1;jettySize=auto;html=1;exitX=0.5;exitY=1;exitDx=0;exitDy=0;" edge="1" parent="1" source="5" target="15">
                    <mxGeometry relative="1" as="geometry"/>
                </mxCell>
                <mxCell id="5" value="Tipos Referenciados&lt;br&gt;(Object)" style="whiteSpace=wrap;html=1;rounded=1;arcSize=10;" vertex="1" parent="1">
                    <mxGeometry x="525" y="160" width="140" height="50" as="geometry"/>
                </mxCell>
                <mxCell id="7" value="Tipo Entero" style="rounded=1;whiteSpace=wrap;html=1;arcSize=10;" vertex="1" parent="1">
                    <mxGeometry x="70" y="270" width="120" height="50" as="geometry"/>
                </mxCell>
                <mxCell id="9" value="Tipo Flotante" style="rounded=1;whiteSpace=wrap;html=1;arcSize=10;" vertex="1" parent="1">
                    <mxGeometry x="210" y="270" width="120" height="50" as="geometry"/>
                </mxCell>
                <mxCell id="11" value="Clases" style="rounded=1;whiteSpace=wrap;html=1;arcSize=10;" vertex="1" parent="1">
                    <mxGeometry x="397.5" y="270" width="120" height="50" as="geometry"/>
                </mxCell>
                <mxCell id="13" value="Interfaces" style="rounded=1;whiteSpace=wrap;html=1;arcSize=10;" vertex="1" parent="1">
                    <mxGeometry x="535" y="270" width="120" height="50" as="geometry"/>
                </mxCell>
                <mxCell id="15" value="Arrays" style="whiteSpace=wrap;html=1;rounded=1;arcSize=10;" vertex="1" parent="1">
                    <mxGeometry x="672.5" y="270" width="120" height="50" as="geometry"/>
                </mxCell>
            </root>
        </mxGraphModel>
    </diagram>
</mxfile>